<svg xmlns="http://www.w3.org/2000/svg" width="1200" height="427" viewBox="0 0 1200 427"><rect width="1200" height="427" fill="#0b1220"/><rect x="0" y="0" width="1200" height="6" fill="#4ade80"/><text x="48" y="58" font-family="&#39;DejaVu Sans Mono&#39;,&#39;Courier New&#39;, monospace" font-size="14" fill="#4ade80" font-weight="700" text-anchor="start" letter-spacing="3">THE MACHINE</text><text x="48" y="96" font-family="Helvetica, Arial, sans-serif" font-size="30" fill="#e6edf6" font-weight="700" text-anchor="start">The lifecycle</text><text x="48" y="397" font-family="&#39;DejaVu Sans Mono&#39;,&#39;Courier New&#39;, monospace" font-size="13" fill="#93a1b5" font-weight="700" text-anchor="start" letter-spacing="3">COGNITIVE FAB · POLYGRAPH</text><text x="1152" y="397" font-family="Helvetica, Arial, sans-serif" font-size="15" fill="#93a1b5" font-style="italic" text-anchor="end">verify, don&#39;t review</text><g transform="translate(48 150) scale(0.778)"><path d="M152 133 L204 133" fill="none" stroke="#93a1b5" stroke-width="2" stroke-linecap="round" stroke-linejoin="round"/><polygon points="204,133 195,138.4 195,127.6" fill="#93a1b5"></polygon><path d="M405 119 L425 119 L425 57 L1025 57 L1025 24 L1075 24" fill="none" stroke="#93a1b5" stroke-width="2" stroke-linecap="round" stroke-linejoin="round"/><polygon points="1075,24 1066,29.4 1066,18.6" fill="#93a1b5"></polygon><path d="M405 133 L457 133" fill="none" stroke="#93a1b5" stroke-width="2" stroke-linecap="round" stroke-linejoin="round"/><polygon points="457,133 448,138.4 448,127.6" fill="#93a1b5"></polygon><path d="M405 148 L425 148 L425 208 L1025 208 L1025 242 L1075 242" fill="none" stroke="#93a1b5" stroke-width="2" stroke-linecap="round" stroke-linejoin="round"/><polygon points="1075,242 1066,247.4 1066,236.6" fill="#93a1b5"></polygon><path d="M597 119 L617 119 L617 70 L1035 70 L1035 35 L1075 35" fill="none" stroke="#93a1b5" stroke-width="2" stroke-linecap="round" stroke-linejoin="round"/><polygon points="1075,35 1066,40.4 1066,29.6" fill="#93a1b5"></polygon><path d="M597 148 L617 148 L617 195 L1035 195 L1035 231 L1075 231" fill="none" stroke="#93a1b5" stroke-width="2" stroke-linecap="round" stroke-linejoin="round"/><polygon points="1075,231 1066,236.4 1066,225.6" fill="#93a1b5"></polygon><path d="M597 133 L649 133" fill="none" stroke="#93a1b5" stroke-width="2" stroke-linecap="round" stroke-linejoin="round"/><polygon points="649,133 640,138.4 640,127.6" fill="#93a1b5"></polygon><path d="M789 119 L809 119 L809 83 L1045 83 L1045 47 L1075 47" fill="none" stroke="#93a1b5" stroke-width="2" stroke-linecap="round" stroke-linejoin="round"/><polygon points="1075,47 1066,52.4 1066,41.6" fill="#93a1b5"></polygon><path d="M789 133 L841 133" fill="none" stroke="#93a1b5" stroke-width="2" stroke-linecap="round" stroke-linejoin="round"/><polygon points="841,133 832,138.4 832,127.6" fill="#93a1b5"></polygon><path d="M789 148 L809 148 L809 182 L1045 182 L1045 219 L1075 219" fill="none" stroke="#93a1b5" stroke-width="2" stroke-linecap="round" stroke-linejoin="round"/><polygon points="1075,219 1066,224.4 1066,213.6" fill="#93a1b5"></polygon><path d="M1005 119 L1055 119 L1055 58 L1075 58" fill="none" stroke="#93a1b5" stroke-width="2" stroke-linecap="round" stroke-linejoin="round"/><polygon points="1075,58 1066,63.4 1066,52.6" fill="#93a1b5"></polygon><path d="M1005 133 L1075 133" fill="none" stroke="#93a1b5" stroke-width="2" stroke-linecap="round" stroke-linejoin="round"/><polygon points="1075,133 1066,138.4 1066,127.6" fill="#93a1b5"></polygon><path d="M1005 148 L1055 148 L1055 208 L1075 208" fill="none" stroke="#93a1b5" stroke-width="2" stroke-linecap="round" stroke-linejoin="round"/><polygon points="1075,208 1066,213.4 1066,202.6" fill="#93a1b5"></polygon><path d="M1215 133 L1267 133" fill="none" stroke="#93a1b5" stroke-width="2" stroke-linecap="round" stroke-linejoin="round"/><polygon points="1267,133 1258,138.4 1258,127.6" fill="#93a1b5"></polygon><rect x="12" y="104" width="140" height="58" rx="10" fill="#131c30" stroke="#26344a" stroke-width="2"/><text x="82" y="138.58" font-family="&#39;DejaVu Sans Mono&#39;,&#39;Courier New&#39;, monospace" font-size="15.5" fill="#e6edf6" font-weight="700" text-anchor="middle">DRAFT</text><rect x="204" y="104" width="201" height="58" rx="10" fill="#131c30" stroke="#26344a" stroke-width="2"/><text x="304.5" y="138.58" font-family="&#39;DejaVu Sans Mono&#39;,&#39;Courier New&#39;, monospace" font-size="15.5" fill="#e6edf6" font-weight="700" text-anchor="middle">PENDING_APPROVAL</text><rect x="457" y="104" width="140" height="58" rx="10" fill="#131c30" stroke="#26344a" stroke-width="2"/><text x="527" y="138.58" font-family="&#39;DejaVu Sans Mono&#39;,&#39;Courier New&#39;, monospace" font-size="15.5" fill="#e6edf6" font-weight="700" text-anchor="middle">APPROVED</text><rect x="649" y="104" width="140" height="58" rx="10" fill="#131c30" stroke="#26344a" stroke-width="2"/><text x="719" y="138.58" font-family="&#39;DejaVu Sans Mono&#39;,&#39;Courier New&#39;, monospace" font-size="15.5" fill="#e6edf6" font-weight="700" text-anchor="middle">RELEASED</text><rect x="841" y="104" width="164" height="58" rx="10" fill="#131c30" stroke="#26344a" stroke-width="2"/><text x="923" y="138.58" font-family="&#39;DejaVu Sans Mono&#39;,&#39;Courier New&#39;, monospace" font-size="15.5" fill="#e6edf6" font-weight="700" text-anchor="middle">ACKNOWLEDGED</text><rect x="1075" y="104" width="140" height="58" rx="10" fill="#131c30" stroke="#26344a" stroke-width="2"/><text x="1145" y="138.58" font-family="&#39;DejaVu Sans Mono&#39;,&#39;Courier New&#39;, monospace" font-size="15.5" fill="#e6edf6" font-weight="700" text-anchor="middle">EXECUTED</text><rect x="1267" y="104" width="140" height="58" rx="10" fill="#131c30" stroke="#26344a" stroke-width="2" stroke-dasharray="5 4"/><text x="1337" y="138.58" font-family="&#39;DejaVu Sans Mono&#39;,&#39;Courier New&#39;, monospace" font-size="15.5" fill="#93a1b5" font-weight="700" text-anchor="middle">CLOSED</text><rect x="1075" y="12" width="140" height="58" rx="10" fill="#131c30" stroke="#26344a" stroke-width="2" stroke-dasharray="5 4"/><text x="1145" y="46.58" font-family="&#39;DejaVu Sans Mono&#39;,&#39;Courier New&#39;, monospace" font-size="15.5" fill="#93a1b5" font-weight="700" text-anchor="middle">ABORTED</text><rect x="1075" y="196" width="140" height="58" rx="10" fill="#131c30" stroke="#26344a" stroke-width="2" stroke-dasharray="5 4"/><text x="1145" y="230.58" font-family="&#39;DejaVu Sans Mono&#39;,&#39;Courier New&#39;, monospace" font-size="15.5" fill="#93a1b5" font-weight="700" text-anchor="middle">EXPIRED</text><line x1="623" y1="96" x2="623" y2="104" stroke="#38bdf8" stroke-width="1.4" stroke-linecap="round"/><text x="623" y="90" font-family="&#39;DejaVu Sans Mono&#39;,&#39;Courier New&#39;, monospace" font-size="13" fill="#38bdf8" font-weight="700" text-anchor="middle">transmitted</text><line x1="1040" y1="96" x2="1040" y2="104" stroke="#38bdf8" stroke-width="1.4" stroke-linecap="round"/><text x="1040" y="90" font-family="&#39;DejaVu Sans Mono&#39;,&#39;Courier New&#39;, monospace" font-size="13" fill="#38bdf8" font-weight="700" text-anchor="middle">executed</text></g></svg>