<svg xmlns="http://www.w3.org/2000/svg" width="1360" height="640" viewBox="0 0 1360 640" font-family="Segoe UI, -apple-system, Helvetica, Arial, sans-serif">
<defs><marker id="arr" viewBox="0 0 10 10" refX="9" refY="5" markerWidth="7" markerHeight="7" orient="auto-start-reverse"><path d="M0 0L10 5L0 10z" fill="#52514e"/></marker>
<marker id="arrR" viewBox="0 0 10 10" refX="9" refY="5" markerWidth="7" markerHeight="7" orient="auto-start-reverse"><path d="M0 0L10 5L0 10z" fill="#d03b3b"/></marker></defs>
<rect width="1360" height="640" fill="#fcfcfb"/>
<text x="28" y="42" font-size="24" font-weight="600" fill="#0b0b0b">DAAO — the verified state machine</text><text x="28" y="66" font-size="14" fill="#52514e">9 states · 28 reachable (state, data) configurations · model-checked against S1–S5, liveness via reachability</text><rect x="490" y="136" width="814" height="72" rx="10" fill="#2a78d6" opacity="0.07"/><line x1="286" y1="196" x2="402" y2="477" stroke="#52514e" stroke-width="1.1" opacity="0.5" marker-end="url(#arr)"/><line x1="334" y1="196" x2="810" y2="477" stroke="#52514e" stroke-width="1.1" opacity="0.35" stroke-dasharray="5 4" marker-end="url(#arr)"/><line x1="535" y1="196" x2="402" y2="477" stroke="#52514e" stroke-width="1.1" opacity="0.5" marker-end="url(#arr)"/><line x1="583" y1="196" x2="810" y2="477" stroke="#52514e" stroke-width="1.1" opacity="0.35" stroke-dasharray="5 4" marker-end="url(#arr)"/><line x1="745" y1="196" x2="402" y2="477" stroke="#52514e" stroke-width="1.1" opacity="0.5" marker-end="url(#arr)"/><line x1="793" y1="196" x2="810" y2="477" stroke="#52514e" stroke-width="1.1" opacity="0.35" stroke-dasharray="5 4" marker-end="url(#arr)"/><line x1="978" y1="196" x2="402" y2="477" stroke="#52514e" stroke-width="1.1" opacity="0.5" marker-end="url(#arr)"/><line x1="1026" y1="196" x2="810" y2="477" stroke="#52514e" stroke-width="1.1" opacity="0.35" stroke-dasharray="5 4" marker-end="url(#arr)"/><line x1="124" y1="172" x2="209" y2="172" stroke="#52514e" stroke-width="1.6" marker-end="url(#arr)"/><rect x="141" y="128.5" width="52.00000000000001" height="18.5" fill="#fcfcfb" opacity="0.92"/><text x="167" y="140" font-size="12.5" fill="#52514e" text-anchor="middle" font-weight="400">submit</text><line x1="410" y1="172" x2="495" y2="172" stroke="#52514e" stroke-width="1.6" marker-end="url(#arr)"/><rect x="371" y="128.5" width="164.00000000000003" height="18.5" fill="#fcfcfb" opacity="0.92"/><text x="453" y="140" font-size="12.5" fill="#52514e" text-anchor="middle" font-weight="400">approve (2nd distinct)</text><line x1="622" y1="172" x2="707" y2="172" stroke="#52514e" stroke-width="1.6" marker-end="url(#arr)"/><rect x="635.5" y="128.5" width="59.00000000000001" height="18.5" fill="#fcfcfb" opacity="0.92"/><text x="665" y="140" font-size="12.5" fill="#52514e" text-anchor="middle" font-weight="400">release</text><line x1="830" y1="172" x2="915" y2="172" stroke="#52514e" stroke-width="1.6" marker-end="url(#arr)"/><rect x="829.5" y="128.5" width="87.00000000000001" height="18.5" fill="#fcfcfb" opacity="0.92"/><text x="873" y="140" font-size="12.5" fill="#52514e" text-anchor="middle" font-weight="400">acknowledge</text><line x1="1088" y1="172" x2="1173" y2="172" stroke="#52514e" stroke-width="1.6" marker-end="url(#arr)"/><rect x="1101.5" y="128.5" width="59.00000000000001" height="18.5" fill="#fcfcfb" opacity="0.92"/><text x="1131" y="140" font-size="12.5" fill="#52514e" text-anchor="middle" font-weight="400">execute</text><rect x="319.2" y="229.5" width="267.6" height="17.5" fill="#fcfcfb" opacity="0.92"/><text x="453" y="240" font-size="11.5" fill="#52514e" text-anchor="middle" font-weight="400">≠ proposer · not a duplicate · in window</text><rect x="589.84" y="229.5" width="190.32000000000002" height="17.5" fill="#fcfcfb" opacity="0.92"/><text x="685" y="240" font-size="11.5" fill="#eb6834" text-anchor="middle" font-weight="600">⚡ transmit — once, in window</text><rect x="1039.06" y="229.5" width="183.88000000000002" height="17.5" fill="#fcfcfb" opacity="0.92"/><text x="1131" y="240" font-size="11.5" fill="#eb6834" text-anchor="middle" font-weight="600">⚡ execute — once, in window</text><rect x="921.96" y="193.5" width="274.04" height="17.5" fill="#fcfcfb" opacity="0.92"/><text x="1196" y="204" font-size="11.5" fill="#2a78d6" text-anchor="end" font-weight="600">AUTHORIZED — S1 two-person rule must hold</text><line x1="1236" y1="196" x2="1236" y2="327" stroke="#52514e" stroke-width="1.6" marker-end="url(#arr)"/><rect x="1246" y="268.5" width="45.00000000000001" height="18.5" fill="#fcfcfb" opacity="0.92"/><text x="1250" y="280" font-size="12.5" fill="#52514e" text-anchor="start" font-weight="400">close</text><path d="M 284 148 C 270 108, 350 108, 336 146" fill="none" stroke="#52514e" stroke-width="1.6" marker-end="url(#arr)"/><rect x="228" y="90.5" width="164.00000000000003" height="18.5" fill="#fcfcfb" opacity="0.92"/><text x="310" y="102" font-size="12.5" fill="#52514e" text-anchor="middle" font-weight="400">approve (1st distinct)</text><rect x="249.16" y="455" width="305.68" height="18" fill="#fcfcfb" opacity="0.92"/><text x="402" y="466" font-size="12" fill="#0b0b0b" text-anchor="middle" font-weight="600">abort — recall, any pre-execution state (L1)</text><rect x="707.56" y="455" width="204.88000000000002" height="18" fill="#fcfcfb" opacity="0.92"/><text x="810" y="466" font-size="12" fill="#52514e" text-anchor="middle" font-weight="600">expire — only past window end</text><rect x="30" y="150" width="92" height="44" rx="9" fill="#ffffff" stroke="#2a78d6" stroke-width="2"/><text x="76" y="178" font-size="14" fill="#0b0b0b" text-anchor="middle" font-weight="600">DRAFT</text><rect x="212" y="150" width="196" height="44" rx="9" fill="#ffffff" stroke="#2a78d6" stroke-width="2"/><text x="310" y="178" font-size="14" fill="#0b0b0b" text-anchor="middle" font-weight="600">PENDING_APPROVAL</text><rect x="498" y="150" width="122" height="44" rx="9" fill="#ffffff" stroke="#2a78d6" stroke-width="2"/><text x="559" y="178" font-size="14" fill="#0b0b0b" text-anchor="middle" font-weight="600">APPROVED</text><rect x="710" y="150" width="118" height="44" rx="9" fill="#ffffff" stroke="#2a78d6" stroke-width="2"/><text x="769" y="178" font-size="14" fill="#0b0b0b" text-anchor="middle" font-weight="600">RELEASED</text><rect x="918" y="150" width="168" height="44" rx="9" fill="#ffffff" stroke="#2a78d6" stroke-width="2"/><text x="1002" y="178" font-size="14" fill="#0b0b0b" text-anchor="middle" font-weight="600">ACKNOWLEDGED</text><rect x="1176" y="150" width="120" height="44" rx="9" fill="#ffffff" stroke="#2a78d6" stroke-width="2"/><text x="1236" y="178" font-size="14" fill="#0b0b0b" text-anchor="middle" font-weight="600">EXECUTED</text><rect x="1188" y="330" width="96" height="44" rx="9" fill="#f0efeb" stroke="#52514e" stroke-width="1.4"/><text x="1236" y="358" font-size="14" fill="#0b0b0b" text-anchor="middle" font-weight="600">CLOSED</text><rect x="350" y="480" width="104" height="44" rx="9" fill="#f0efeb" stroke="#52514e" stroke-width="1.4"/><text x="402" y="508" font-size="14" fill="#0b0b0b" text-anchor="middle" font-weight="600">ABORTED</text><rect x="760" y="480" width="100" height="44" rx="9" fill="#f0efeb" stroke="#52514e" stroke-width="1.4"/><text x="810" y="508" font-size="14" fill="#0b0b0b" text-anchor="middle" font-weight="600">EXPIRED</text><rect x="26" y="568" width="614.2400000000001" height="19" fill="#fcfcfb" opacity="0.92"/><text x="30" y="580" font-size="13" fill="#52514e" text-anchor="start" font-weight="400">Every action that does not apply is an observable reject(reason) — no silent paths.</text><text x="28" y="624" font-size="12.5" fill="#52514e">Derived from daao/verify/next.cjs + contract.json — the edge set is BFS-checked against the machine at generation time. Terminal states are absorbing.</text></svg>