<svg xmlns="http://www.w3.org/2000/svg" width="1200" height="630" viewBox="0 0 1200 630" font-family="Segoe UI, -apple-system, Helvetica, Arial, sans-serif">
<defs><marker id="arr" viewBox="0 0 10 10" refX="9" refY="5" markerWidth="7" markerHeight="7" orient="auto-start-reverse"><path d="M0 0L10 5L0 10z" fill="#52514e"/></marker>
<marker id="arrR" viewBox="0 0 10 10" refX="9" refY="5" markerWidth="7" markerHeight="7" orient="auto-start-reverse"><path d="M0 0L10 5L0 10z" fill="#d03b3b"/></marker></defs>
<rect width="1200" height="630" fill="#fcfcfb"/>
<text x="28" y="42" font-size="24" font-weight="600" fill="#0b0b0b">polyvers — the deploy is blocked before it ships</text><text x="28" y="66" font-size="14" fill="#52514e">Rule change: two approvers → three. The gate replays it against the orders already in flight under the old rule.</text><text x="32" y="104" font-size="15" font-weight="700" fill="#0b0b0b">Live fleet (5 in-flight orders)</text><rect x="32" y="122" width="470" height="54" rx="9" fill="#ffffff" stroke="#d03b3b" stroke-width="2.4"/><text x="48" y="145" font-size="14" font-weight="700" fill="#d03b3b">#0  APPROVED</text><text x="48" y="165" font-size="12.5" fill="#52514e">approvers: [bob, carol] — legal under 2-rule · violates new S1 (≥3)</text><text x="470" y="155" font-size="17" text-anchor="end" font-weight="700" fill="#d03b3b">✗</text><rect x="32" y="188" width="470" height="54" rx="9" fill="#ffffff" stroke="#0ca30c" stroke-width="1.6"/><text x="48" y="211" font-size="14" font-weight="700" fill="#0b0b0b">#1  PENDING_APPROVAL</text><text x="48" y="231" font-size="12.5" fill="#52514e">approvers: [bob] — legal under 2-rule</text><text x="470" y="221" font-size="17" text-anchor="end" font-weight="700" fill="#0ca30c">✓</text><rect x="32" y="254" width="470" height="54" rx="9" fill="#ffffff" stroke="#d03b3b" stroke-width="2.4"/><text x="48" y="277" font-size="14" font-weight="700" fill="#d03b3b">#2  RELEASED</text><text x="48" y="297" font-size="12.5" fill="#52514e">approvers: [bob, carol] — legal under 2-rule · violates new S1 (≥3)</text><text x="470" y="287" font-size="17" text-anchor="end" font-weight="700" fill="#d03b3b">✗</text><rect x="32" y="320" width="470" height="54" rx="9" fill="#ffffff" stroke="#d03b3b" stroke-width="2.4"/><text x="48" y="343" font-size="14" font-weight="700" fill="#d03b3b">#3  ACKNOWLEDGED</text><text x="48" y="363" font-size="12.5" fill="#52514e">approvers: [bob, carol] — legal under 2-rule · violates new S1 (≥3)</text><text x="470" y="353" font-size="17" text-anchor="end" font-weight="700" fill="#d03b3b">✗</text><rect x="32" y="386" width="470" height="54" rx="9" fill="#ffffff" stroke="#d03b3b" stroke-width="2.4"/><text x="48" y="409" font-size="14" font-weight="700" fill="#d03b3b">#4  CLOSED</text><text x="48" y="429" font-size="12.5" fill="#52514e">approvers: [bob, carol] — legal under 2-rule · violates new S1 (≥3)</text><text x="470" y="419" font-size="17" text-anchor="end" font-weight="700" fill="#d03b3b">✗</text><text x="560" y="104" font-size="15" font-weight="700" fill="#0b0b0b">Mechanical gates</text><rect x="560" y="122" width="608" height="36" rx="8" fill="#0ca30c" opacity="0.07"/><text x="576" y="146" font-size="14" font-weight="600" fill="#0b0b0b">load</text><text x="1152" y="146" font-size="13.5" text-anchor="end" font-weight="700" fill="#0ca30c">✓ PASS</text><rect x="560" y="168" width="608" height="36" rx="8" fill="#0ca30c" opacity="0.07"/><text x="576" y="192" font-size="14" font-weight="600" fill="#0b0b0b">vocabulary</text><text x="1152" y="192" font-size="13.5" text-anchor="end" font-weight="700" fill="#0ca30c">✓ PASS</text><rect x="560" y="214" width="608" height="36" rx="8" fill="#0ca30c" opacity="0.07"/><text x="576" y="238" font-size="14" font-weight="600" fill="#0b0b0b">invariant-diff</text><text x="1152" y="238" font-size="13.5" text-anchor="end" font-weight="700" fill="#0ca30c">✓ PASS</text><rect x="560" y="260" width="608" height="36" rx="8" fill="#0ca30c" opacity="0.07"/><text x="576" y="284" font-size="14" font-weight="600" fill="#0b0b0b">stimuli</text><text x="1152" y="284" font-size="13.5" text-anchor="end" font-weight="700" fill="#0ca30c">✓ PASS</text><rect x="560" y="306" width="608" height="36" rx="8" fill="#d03b3b" opacity="0.07"/><text x="576" y="330" font-size="14" font-weight="600" fill="#0b0b0b">invariants-pointwise</text><text x="1152" y="330" font-size="13.5" text-anchor="end" font-weight="700" fill="#d03b3b">✗ FAIL (4)</text><rect x="560" y="352" width="608" height="36" rx="8" fill="#d03b3b" opacity="0.07"/><text x="576" y="376" font-size="14" font-weight="600" fill="#0b0b0b">semantic-model-check</text><text x="1152" y="376" font-size="13.5" text-anchor="end" font-weight="700" fill="#d03b3b">✗ FAIL (1)</text><rect x="560" y="398" width="608" height="36" rx="8" fill="#0ca30c" opacity="0.07"/><text x="576" y="422" font-size="14" font-weight="600" fill="#0b0b0b">shape-roundtrip</text><text x="1152" y="422" font-size="13.5" text-anchor="end" font-weight="700" fill="#0ca30c">✓ PASS</text><rect x="560" y="454" width="608" height="44" rx="9" fill="#d03b3b" opacity="0.12"/><text x="576" y="483" font-size="16" font-weight="700" fill="#d03b3b">Verdict: FAIL — exit 1, the deploy does not ship</text><text x="28" y="614" font-size="12.5" fill="#52514e">Parsed from daao/out/compat/43c7a1e7f0f7/compat-report.json and verify-v3/fleet.json. Remediation (re-open to PENDING_APPROVAL) is a human decision the gate refuses to invent.</text></svg>